<?xml version="1.0" encoding="utf-8"?>

<!DOCTYPE svg PUBLIC "-//W3C//DTD SVG 1.1//EN" "http://www.w3.org/Graphics/SVG/1.1/DTD/svg11.dtd">
<svg version="1.1" id="Layer_1" xmlns="http://www.w3.org/2000/svg" xmlns:xlink="http://www.w3.org/1999/xlink" x="0px" y="0px"
	 viewBox="0 0 1926 1666.064" enable-background="new 0 0 1926 1666.064" xml:space="preserve">
<g>
	<line fill="none" stroke="#000000" stroke-width="4" stroke-miterlimit="10" x1="963" y1="33.032" x2="1886.76" y2="1633.032"/>
	
		<line fill="none" stroke="#000000" stroke-width="4" stroke-miterlimit="10" x1="927.471" y1="94.57" x2="1851.231" y2="1571.493"/>
	
		<line fill="none" stroke="#000000" stroke-width="4" stroke-miterlimit="10" x1="891.942" y1="156.109" x2="1815.702" y2="1509.955"/>
	
		<line fill="none" stroke="#000000" stroke-width="4" stroke-miterlimit="10" x1="856.412" y1="217.647" x2="1780.173" y2="1448.417"/>
	
		<line fill="none" stroke="#000000" stroke-width="4" stroke-miterlimit="10" x1="820.883" y1="279.186" x2="1744.643" y2="1386.878"/>
	
		<line fill="none" stroke="#000000" stroke-width="4" stroke-miterlimit="10" x1="785.354" y1="340.724" x2="1709.114" y2="1325.34"/>
	
		<line fill="none" stroke="#000000" stroke-width="4" stroke-miterlimit="10" x1="749.825" y1="402.263" x2="1673.585" y2="1263.801"/>
	
		<line fill="none" stroke="#000000" stroke-width="4" stroke-miterlimit="10" x1="714.295" y1="463.801" x2="1638.056" y2="1202.263"/>
	
		<line fill="none" stroke="#000000" stroke-width="4" stroke-miterlimit="10" x1="678.766" y1="525.34" x2="1602.526" y2="1140.724"/>
	
		<line fill="none" stroke="#000000" stroke-width="4" stroke-miterlimit="10" x1="643.237" y1="586.878" x2="1566.997" y2="1079.186"/>
	
		<line fill="none" stroke="#000000" stroke-width="4" stroke-miterlimit="10" x1="607.708" y1="648.417" x2="1531.468" y2="1017.647"/>
	
		<line fill="none" stroke="#000000" stroke-width="4" stroke-miterlimit="10" x1="572.178" y1="709.955" x2="1495.939" y2="956.109"/>
	
		<line fill="none" stroke="#000000" stroke-width="4" stroke-miterlimit="10" x1="536.649" y1="771.493" x2="1460.409" y2="894.57"/>
	<line fill="none" stroke="#000000" stroke-width="4" stroke-miterlimit="10" x1="501.12" y1="833.032" x2="1424.88" y2="833.032"/>
	
		<line fill="none" stroke="#000000" stroke-width="4" stroke-miterlimit="10" x1="465.591" y1="894.57" x2="1389.351" y2="771.493"/>
	
		<line fill="none" stroke="#000000" stroke-width="4" stroke-miterlimit="10" x1="430.061" y1="956.109" x2="1353.822" y2="709.955"/>
	
		<line fill="none" stroke="#000000" stroke-width="4" stroke-miterlimit="10" x1="394.532" y1="1017.647" x2="1318.292" y2="648.417"/>
	
		<line fill="none" stroke="#000000" stroke-width="4" stroke-miterlimit="10" x1="359.003" y1="1079.186" x2="1282.763" y2="586.878"/>
	
		<line fill="none" stroke="#000000" stroke-width="4" stroke-miterlimit="10" x1="323.474" y1="1140.724" x2="1247.234" y2="525.34"/>
	
		<line fill="none" stroke="#000000" stroke-width="4" stroke-miterlimit="10" x1="287.944" y1="1202.263" x2="1211.705" y2="463.801"/>
	
		<line fill="none" stroke="#000000" stroke-width="4" stroke-miterlimit="10" x1="252.415" y1="1263.801" x2="1176.176" y2="402.263"/>
	
		<line fill="none" stroke="#000000" stroke-width="4" stroke-miterlimit="10" x1="216.886" y1="1325.34" x2="1140.646" y2="340.724"/>
	
		<line fill="none" stroke="#000000" stroke-width="4" stroke-miterlimit="10" x1="181.357" y1="1386.878" x2="1105.117" y2="279.186"/>
	
		<line fill="none" stroke="#000000" stroke-width="4" stroke-miterlimit="10" x1="145.827" y1="1448.417" x2="1069.588" y2="217.647"/>
	
		<line fill="none" stroke="#000000" stroke-width="4" stroke-miterlimit="10" x1="110.298" y1="1509.955" x2="1034.058" y2="156.109"/>
	<line fill="none" stroke="#000000" stroke-width="4" stroke-miterlimit="10" x1="74.769" y1="1571.493" x2="998.529" y2="94.57"/>
	<line fill="none" stroke="#000000" stroke-width="4" stroke-miterlimit="10" x1="39.24" y1="1633.032" x2="963" y2="33.032"/>
</g>
</svg>
